<svg xmlns="http://www.w3.org/2000/svg" width="48" height="48" viewBox="0 0 48 48"><path fill="#B0BEC5" d="M40 17H42V41H40z"/><path fill="#B0BEC5" d="M36 39H41V41H36zM36 23H41V25H36zM38 19H41V21H38zM38 35H41V37H38zM38 31H41V33H38zM38 27H41V29H38z"/><path fill="#BBDEFB" d="M30,30c0-6.627-12-24-12-24S6,23.373,6,30s5.373,12,12,12S30,36.627,30,30z"/><path fill="#2196F3" d="M27.453,22c0,0-3.453,3-9.453,0s-9.453,0-9.453,0C7.062,25.122,6,28.035,6,30c0,6.627,5.373,12,12,12s12-5.373,12-12C30,28.035,28.938,25.122,27.453,22z"/><g><path fill="#FF3D00" d="M36 7H41V9H36zM38 15H41V17H38zM38 11H41V13H38z"/><path fill="#FF3D00" d="M40 7H42V17H40z"/></g></svg>