<svg xmlns="http://www.w3.org/2000/svg" viewBox="0 0 40 40"><path fill="#4788c7" d="M18 27H21V34H18z"/><path fill="#dff0fe" d="M3.5 33.5H35.5V37.5H3.5z"/><path fill="#4788c7" d="M35,34v3H4v-3H35 M36,33H3v5h33V33L36,33z"/><path fill="#b6dcfe" d="M16,38.5c-0.276,0-0.5-0.225-0.5-0.5v-5c0-0.275,0.224-0.5,0.5-0.5h7c0.276,0,0.5,0.225,0.5,0.5v5 c0,0.275-0.224,0.5-0.5,0.5H16z"/><path fill="#4788c7" d="M23,33v5h-7v-5H23 M23,32h-7c-0.552,0-1,0.448-1,1v5c0,0.552,0.448,1,1,1h7c0.552,0,1-0.448,1-1v-5 C24,32.448,23.552,32,23,32L23,32z"/><path fill="#98ccfd" d="M19.483,29.5c-7.72,0-14-6.28-14-14s6.28-14,14-14s14,6.28,14,14S27.203,29.5,19.483,29.5z"/><path fill="#4788c7" d="M19.483,2c7.444,0,13.5,6.056,13.5,13.5S26.927,29,19.483,29s-13.5-6.056-13.5-13.5 S12.039,2,19.483,2 M19.483,1c-8.008,0-14.5,6.492-14.5,14.5S11.475,30,19.483,30s14.5-6.492,14.5-14.5S27.491,1,19.483,1L19.483,1 z"/><path fill="#fff" d="M19.483,26.5c-6.065,0-11-4.935-11-11s4.935-11,11-11s11,4.935,11,11S25.548,26.5,19.483,26.5z"/><path fill="#4788c7" d="M19.483,5c5.79,0,10.5,4.71,10.5,10.5S25.272,26,19.483,26s-10.5-4.71-10.5-10.5S13.693,5,19.483,5 M19.483,4c-6.351,0-11.5,5.149-11.5,11.5S13.131,27,19.483,27s11.5-5.149,11.5-11.5S25.834,4,19.483,4L19.483,4z"/><path fill="#4788c7" d="M27.369 22.409c1.622-1.849 2.613-4.263 2.613-6.909s-.992-5.06-2.613-6.909l-.751.658c1.467 1.673 2.364 3.857 2.364 6.251s-.897 4.578-2.365 6.251L27.369 22.409zM19.5 14A1.5 1.5 0 1 0 19.5 17 1.5 1.5 0 1 0 19.5 14z"/><path fill="#4788c7" d="M20.71 16.387L18.688 14.238 26 10z"/><path fill="#98ccfd" d="M8.5 16h3c.275 0 .5-.225.5-.5v0c0-.275-.225-.5-.5-.5h-3C8.225 15 8 15.225 8 15.5v0C8 15.775 8.225 16 8.5 16zM19.5 4L19.5 4C19.775 4 20 4.225 20 4.5v3C20 7.775 19.775 8 19.5 8l0 0C19.225 8 19 7.775 19 7.5v-3C19 4.225 19.225 4 19.5 4zM12.07 23.62l2.121-2.121c.194-.194.194-.513 0-.707h0c-.194-.194-.513-.194-.707 0l-2.121 2.121c-.194.194-.194.513 0 .707v0C11.558 23.814 11.876 23.814 12.07 23.62zM11.363 7.356L11.363 7.356c.194-.194.513-.194.707 0l2.121 2.121c.194.194.194.513 0 .707l0 0c-.194.194-.513.194-.707 0l-2.121-2.121C11.169 7.869 11.169 7.551 11.363 7.356z"/><g><path fill="#4788c7" d="M19.483,5c5.79,0,10.5,4.71,10.5,10.5S25.272,26,19.483,26s-10.5-4.71-10.5-10.5S13.693,5,19.483,5 M19.483,4c-6.351,0-11.5,5.149-11.5,11.5S13.131,27,19.483,27s11.5-5.149,11.5-11.5S25.834,4,19.483,4L19.483,4z"/></g></svg>