<?xml version="1.0" encoding="utf-8"?>
<svg xmlns="http://www.w3.org/2000/svg" viewBox="0 0 48 48" width="256" height="256">
  <radialGradient id="H1Y3TuUw9PcVvnHfoMDmja" cx="24" cy="24" r="21" gradientUnits="userSpaceOnUse">
    <stop offset="0" stop-color="#ffe16e" />
    <stop offset=".583" stop-color="#fcbf22" />
    <stop offset=".654" stop-color="#fea20f" />
    <stop offset=".718" stop-color="#ff8c00" />
    <stop offset=".797" stop-color="#ffa300" />
    <stop offset=".928" stop-color="#ffc400" />
    <stop offset="1" stop-color="#ffd000" />
  </radialGradient>
  <path fill="url(#H1Y3TuUw9PcVvnHfoMDmja)" d="M24,3l0.906,1.875c1.029,2.13,3.811,2.683,5.577,1.109l1.554-1.385l0.119,2.079c0.136,2.362,2.494,3.937,4.728,3.159l1.966-0.685l-0.685,1.966c-0.779,2.234,0.797,4.592,3.159,4.728l2.079,0.119l-1.385,1.554c-1.574,1.766-1.021,4.547,1.109,5.577L45,24l-1.875,0.906c-2.13,1.029-2.683,3.811-1.109,5.577l1.385,1.554l-2.079,0.119c-2.362,0.136-3.937,2.494-3.159,4.728l0.685,1.966l-1.966-0.685c-2.234-0.779-4.592,0.797-4.728,3.159l-0.119,2.079l-1.554-1.385c-1.766-1.574-4.547-1.021-5.577,1.109L24,45l-0.906-1.875c-1.029-2.13-3.811-2.683-5.577-1.109l-1.554,1.385l-0.119-2.079c-0.136-2.362-2.494-3.937-4.728-3.159l-1.966,0.685l0.685-1.966c0.779-2.234-0.797-4.592-3.159-4.728l-2.079-0.119l1.385-1.554c1.574-1.766,1.021-4.547-1.109-5.577L3,24l1.875-0.906c2.13-1.029,2.683-3.811,1.109-5.577l-1.385-1.554l2.079-0.119c2.362-0.136,3.937-2.494,3.159-4.728L9.151,9.151l1.966,0.685c2.234,0.779,4.592-0.797,4.728-3.159l0.119-2.079l1.554,1.385c1.766,1.574,4.547,1.021,5.577-1.109L24,3z" />
</svg>