<svg xmlns="http://www.w3.org/2000/svg" viewBox="0 0 48 48"><path fill="#ff6f00" d="M42.203,26.396L44,24l-1.797-2.396l1.116-2.78l-2.356-1.85L41.32,14l-2.755-1.177l-0.424-2.965 l-2.965-0.424L34,6.68l-2.974,0.358l-1.85-2.356l-2.78,1.116L24,4l-2.396,1.797l-2.78-1.116l-1.85,2.356L14,6.68l-1.177,2.755 L9.858,9.858l-0.424,2.965L6.68,14l0.358,2.974l-2.356,1.85l1.116,2.78L4,24l1.797,2.396l-1.116,2.78l2.356,1.85L6.68,34 l2.755,1.177l0.424,2.965l2.965,0.424L14,41.32l2.974-0.358l1.85,2.356l2.78-1.116L24,44l2.396-1.797l2.78,1.116l1.85-2.356 L34,41.32l1.177-2.755l2.965-0.424l0.424-2.965L41.32,34l-0.358-2.974l2.356-1.85L42.203,26.396z"/><path fill="#ffca28" d="M24 7A17 17 0 1 0 24 41A17 17 0 1 0 24 7Z"/><path fill="#ffb300" d="M24 9A15 15 0 1 0 24 39A15 15 0 1 0 24 9Z"/></svg>