<svg xmlns="http://www.w3.org/2000/svg" viewBox="0 0 40 40"><path fill="none" stroke="#4788c7" d="M4 15.5L13.333 15.5M4 15.5L13 25M4 15.5L13 6"/><path fill="#98ccfd" d="M12.5 5.577L39.5 9.434 39.5 21.566 12.5 25.423z"/><path fill="#4788c7" d="M13,6.153l26,3.714v11.265l-26,3.714V6.153 M12,5v21l28-4V9L12,5L12,5z"/><path fill="#dff0fe" d="M1.5 5.833H4.5V39.5H1.5z"/><path fill="#4788c7" d="M4,6.333V39H2V6.333H4 M5,5.333H1V40h4V5.333L5,5.333z"/><path fill="#dff0fe" d="M0.5 12.5H5.5V18.5H0.5z"/><path fill="#4788c7" d="M5,13v5H1v-5H5 M6,12H0v7h6V12L6,12z"/><path fill="#dff0fe" d="M1 38H5V40H1z"/><path fill="#b6dcfe" d="M2.999 1.499A2.5 2.5 0 1 0 2.999 6.4990000000000006A2.5 2.5 0 1 0 2.999 1.499Z"/><path fill="#4788c7" d="M2.999,2C4.102,2,5,2.897,5,3.999C5,5.102,4.102,6,2.999,6C1.897,6,1,5.102,1,3.999 C1,2.897,1.897,2,2.999,2 M2.999,1C1.343,1,0,2.344,0,3.999C0,5.656,1.343,7,2.999,7C4.657,7,6,5.656,6,3.999 C6,2.344,4.657,1,2.999,1L2.999,1z"/><g><path fill="#fff" d="M24 23.276L24 7.724 19 7.01 19 23.99zM35 21.704L35 9.296 30 8.582 30 22.418z"/></g><path fill="#4788c7" d="M4.5 36L4.5 36C4.775 36 5 36.225 5 36.5v3C5 39.775 4.775 40 4.5 40h0C4.225 40 4 39.775 4 39.5v-3C4 36.225 4.225 36 4.5 36zM1.5 36L1.5 36C1.775 36 2 36.225 2 36.5v3C2 39.775 1.775 40 1.5 40h0C1.225 40 1 39.775 1 39.5v-3C1 36.225 1.225 36 1.5 36z"/></svg>